<?xml version='1.0' encoding='utf-8'?>
<svg xmlns="http://www.w3.org/2000/svg" version="1.1" id="svg3713" width="330.23999" height="395.04001" viewBox="0 0 330.23999 395.04001"> <metadata id="metadata3719"> </metadata> <defs id="defs3717"/> <path style="fill:#000000;stroke-width:0.47999999" d="m 69.297342,381.74106 -14.762334,-0.0449 0.350755,-5.33861 c 0.504445,-8.80803 1.438338,-17.86312 2.111018,-24.48924 0.853615,-9.88043 1.452101,-16.84422 2.011502,-18.04967 0.699849,-1.52257 1.155983,-3.30544 1.782188,-4.66058 1.748011,-4.13363 3.708767,-8.68619 5.076359,-12.51063 0.966815,-2.48437 2.754509,-6.53912 3.260266,-6.53912 0.4962,0 0.45385,2.11631 -0.06919,3.45741 -0.921941,2.67902 -1.611844,5.39296 -2.449987,8.06259 -0.842031,2.67371 -1.656029,5.58257 -2.417765,8.64 -1.081531,4.34101 -1.88101,12.43055 -2.158411,21.84 -0.07005,2.376 -0.368923,7.02 -0.664167,10.32 -1.27055,14.20128 -1.270526,14.2282 0.01373,14.54814 1.395711,0.3477 122.936464,-0.0997 148.746584,-0.54749 l 18.48,-0.32065 c -0.30408,-4.5857 -0.93127,-8.43732 -1.24235,-12.24 -0.81258,-10.19445 -1.34518,-16.34532 -1.89112,-21.84 -0.28854,-2.904 -0.70865,-7.44 -0.9336,-10.08 -0.66882,-7.84962 -1.02107,-9.45638 -2.57816,-11.76 -2.12336,-3.14139 -5.9183,-8.2127 -7.18383,-9.6 -1.55434,-1.70391 -4.17092,-5.59747 -4.17092,-6.20649 0,-0.28243 0.20619,-0.51351 0.45819,-0.51351 0.6381,0 1.2391,0.62658 11.23846,11.71682 1.88285,2.08825 3.90935,4.31206 4.50335,4.94181 0.594,0.62975 1.08,1.65871 1.08,2.28656 0.4035,3.82293 1.0981,7.76802 1.41537,11.29481 0.27237,3.036 0.83831,8.544 1.25767,12.24 1.28589,11.33316 1.63575,14.66926 2.13934,20.4 0.2668,3.036 0.71892,7.4378 1.00472,9.78178 0.42464,3.48263 0.4011,4.68629 -0.12873,5.02204 -0.3566,0.22598 -3.88837,0.0658 -7.84837,0.0711 -3.96,0.005 -37.548,0.0626 -74.63999,0.12735 -37.092,0.0648 -73.897761,0.0605 -81.790579,-0.01 z m 217.700148,-38.7843 c -7.87543,-1.67486 -14.25442,-6.70275 -26.46958,-20.86322 -1.188,-1.37719 -2.81581,-3.17927 -3.61736,-4.00461 -0.80155,-0.82534 -3.38899,-4.09262 -5.74987,-7.26062 -3.39972,-3.38904 -5.88175,-8.44526 -8.87277,-11.64358 -3.98027,-4.98981 -7.69419,-10.02172 -12.31679,-14.82782 -1.38152,-1.39038 -4.52396,-4.70255 -6.57487,-6.46846 -2.23633,-1.97986 -6.12497,-5.65419 -9.6206,-9.42014 -2.61753,-2.81996 -3.17565,-2.95179 -7.41386,-1.75126 -3.42285,0.96957 -12.25276,5.28691 -13.8896,6.79126 -3.36015,2.66227 -7.30142,5.58782 -9.67334,9.24 -1.76242,3.07605 -2.16527,4.28483 -2.34446,7.03472 -0.17306,2.65574 -0.0857,3.01189 0.86295,3.51962 0.58053,0.31069 1.91809,1.34418 2.97236,2.29664 1.07948,0.77951 2.44353,1.57288 4.87753,0.83866 6.02826,-1.81844 9.54502,-0.9628 12.19324,2.96666 1.56557,2.323 2.30555,5.84103 1.98714,7.14096 -0.92745,2.45359 -0.99547,2.79497 0.0643,3.85475 1.28663,1.05372 0.73182,6.028 -0.0429,7.35185 -2.56419,4.1436 -3.28718,4.43587 -2.9322,0.91361 0.40296,-4.01135 -0.45106,-4.24674 -3.49364,-7.03647 -0.93239,-0.87945 -1.69526,-1.91965 -1.69526,-2.31155 0,-1.25121 0.96501,-2.56945 1.88094,-2.56945 0.56512,0 0.97042,-0.43559 1.11654,-1.2 0.38161,-1.99625 -0.1296,-3.42343 -1.80946,-5.05162 -1.88353,-1.82558 -4.31855,-2.11172 -6.90176,-0.81101 -0.89856,0.45245 -1.97856,0.82247 -2.4,0.82228 -0.73031,-3.3e-4 -3.94986,-1.95413 -6.64443,-3.54607 -1.07354,-0.71279 -3.19383,-2.21856 -3.72183,-2.51796 -0.83921,-0.4759 -0.9416,-0.95903 -0.81376,-3.84001 0.25347,-5.71248 2.99469,-12.45444 6.62402,-16.29164 3.57356,-4.04319 6.90109,-5.77677 10.74974,-7.61814 1.74316,-0.80719 4.76816,-2.02926 7.07809,-2.69632 5.92111,-1.57564 13.22109,-3.21835 20.16191,-2.89918 1.72306,0.0792 1.24939,0.93471 -0.72,1.30038 -2.22743,0.41358 -5.88552,1.94328 -5.8642,2.45223 0.0283,0.6744 10.61116,7.05038 18.45825,11.12071 5.81378,3.01564 8.84332,3.61794 16.06722,3.1943 10.44725,-0.61266 9.75376,-0.66934 10.49077,0.85744 1.05388,2.18321 0.29328,3.64733 -4.2678,8.21542 -2.35633,2.35994 -4.28424,4.46097 -4.28424,4.66893 0,0.20797 0.5457,0.73569 1.21267,1.1727 2.06031,1.34997 5.01151,0.59765 9.2694,-2.36296 3.72115,-2.5874 7.32312,-4.04535 10.41722,-4.64948 2.8183,-0.55028 6.4616,-1.2809 6.8862,-1.70549 0.73362,-0.73362 -3.6912,-3.18149 -6.80495,-3.76459 -1.00071,-0.1874 -2.78271,-0.75362 -3.96,-1.25827 -1.67765,-0.71912 -2.14054,-1.16464 -2.14054,-2.0602 0,-1.5366 2.51526,-2.83403 6.57781,-4.96675 1.62116,-0.85106 3.44912,-2.27317 3.65984,-3.97173 0.6282,-4.96158 -1.21933,-6.91795 -3.1293,-10.90121 -0.77875,-1.62727 -3.2167,-4.25499 -4.53504,-5.5062 -4.76383,-3.79076 -10.14082,-8.34253 -15.05325,-11.08885 -5.45327,-3.58664 -11.6489,-6.78363 -16.72972,-10.47185 -6.439,-4.1905 -12.05932,-7.25459 -16.3903,-9.60625 -3.48845,-1.94795 -7.29814,-3.99369 -11.57118,-6.39762 -9.03349,-5.1718 -16.29998,-8.35324 -22.26882,-11.11719 -6.6736,-2.81484 -13.75646,-6.54548 -19.65614,-9.59699 -3.41889,-1.7672 -7.63089,-4.143 -9.36,-5.27955 -5.38777,-3.595 -10.74842,-6.39137 -16.34385,-9.12151 -6.11156,-2.89174 -9.67907,-5.99561 -15.36,-9.0258 -2.56062,-2.0249 -5.90981,-3.49701 -8.16,-5.35996 -2.73598,-1.61585 -4.87233,-3.71004 -7.2562,-5.52 -3.82683,-2.89165 -18.578006,-17.35405 -19.177986,-18.80254 -0.31444,-0.75911 -0.83217,-1.53709 -1.15052,-1.72883 -0.70978,-0.42751 -3.854482,-6.93841 -5.100783,-10.56084 -2.18315,-6.34545 -0.496329,-15.98408 3.546999,-20.26779 4.511164,-4.77936 6.806114,-6.1714 13.05849,-7.92083 3.75719,-1.05127 12.19546,-1.671906 15.82354,-1.163826 2.91055,0.407596 8.08323,2.942316 11.00966,4.841636 1.70141,1.0734 2.7671,1.82188 4.03419,2.71765 2.27123,1.59479 4.56,1.85443 6.6215,0.75114 1.66435,-0.89074 1.70111,-0.89033 2.21633,0.0249 0.68035,1.20851 6.58678,6.79562 8.70729,8.23654 2.50719,1.70368 6.53299,3.07232 9.03786,3.0726 1.82473,1.9e-4 2.54532,-0.26915 3.80976,-1.42404 1.78297,-1.62849 2.32083,-1.42978 3.76812,1.39217 1.2339,2.40587 2.31569,3.51421 4.8946,5.01477 1.81648,1.05693 2.88637,1.31696 5.62786,1.3678 2.72056,-0.14728 3.24258,-0.24016 4.33106,2.07549 1.05856,2.25197 4.4344,5.01408 6.1282,5.01408 2.03732,0 5.64948,-1.94008 6.75653,-3.6289 0.69419,-1.059 1.31687,-1.52758 1.78913,-1.34635 1.84733,1.71878 4.05275,3.03611 6.21785,3.791 2.06302,0.70039 2.84317,0.73003 5.9641,0.22657 6.50471,-1.04932 6.83484,-1.98305 2.03733,-5.76232 -2.2921,-1.89438 -4.12436,-3.67392 -6.28102,-5.72517 l -3.05093,0.2849 c -3.62871,0.33885 -6.03298,-0.33295 -8.61851,-2.40817 -1.79494,-1.44067 -1.84702,-1.45071 -4.58889,-0.88438 -5.15061,1.06383 -8.28019,0.4322 -10.91541,-2.20302 l -1.63995,-1.63996 -2.45308,0.58849 c -3.05042,0.73178 -6.66047,0.33736 -9.2513,-1.01077 -1.96945,-1.0248 -5.57583,-4.50654 -5.57583,-5.38313 0,-0.2647 -0.77,-0.33836 -1.80576,-0.17273 -1.0317,0.16497 -2.76105,0.001 -4.03432,-0.38195 -2.5206,-0.75859 -8.68312,-3.66768 -11.91991,-5.62693 -1.188,-0.71911 -3.12744,-1.44446 -4.30986,-1.61189 -2.61975,-0.370956 -2.89014,-0.524286 -2.89014,-1.638926 0,-1.66552 2.76392,-2.41859 9.19137,-2.50432 4.91253,-0.0655 6.21656,0.0712 7.60863,0.79747 1.50046,0.811505 2.976,1.14688 4.55999,1.4773 4.81021,1.00338 10.68998,3.097606 14.08243,5.557466 1.07278,0.88519 2.32077,1.06729 3.31319,1.38373 6.05657,1.41785 8.84647,2.4305 13.32438,5.00841 1.2207,0.75499 2.63837,1.03973 3.95558,0.91642 2.93722,-0.13407 7.86138,1.25588 8.1683,0.37585 0.25544,-0.73241 -3.75174,-4.60108 -6.46509,-6.24163 -9.29647,-5.620826 -15.06766,-8.890856 -20.4801,-11.604296 -2.9973,-1.554154 -8.1859,-3.632796 -12.05869,-5.08875 -6.5626,-2.48376 -12.3185,-3.54091 -13.58396,-2.49489 -1.08059,0.8932 -6.44821,3.096325 -9.45603,4.46151 -4.61496,2.063476 -10.38289,3.510277 -14.10303,2.964667 -3.89627,-0.741161 -7.61392,-1.681101 -10.00192,-2.322397 -3.31378,-0.741844 -7.32451,-0.31807 -9.97505,0.262 -3.845396,0.84157 -7.198916,1.91844 -8.661346,2.7813 -3.413836,2.04137 -3.438379,1.712425 -1.78785,-2.26939 0.68529,-2.101918 2.632909,-4.322839 3.461149,-5.973864 1.71709,-3.43582 2.697145,-6.411711 2.232481,-10.552946 -0.0863,-0.924 -0.31879,-3.138 -0.5166,-4.92 -0.30283,-2.727917 -0.24515,-3.24 0.36489,-3.24 0.76362,0 1.30728,0.970017 1.30728,2.332493 0,1.246387 2.345034,5.622071 4.218836,7.704523 2.43267,2.668448 4.92872,5.591659 7.14811,7.872904 2.54076,2.525073 4.93417,3.78057 7.5574,3.44755 5.31717,-0.44932 12.08097,-2.82945 16.16014,-5.68661 2.65423,-1.85909 6.25896,-5.872356 7.35436,-8.187847 1.19147,-2.51857 2.55026,-8.733898 2.02436,-9.259796 -0.15644,-0.156446 -1.6972,0.179333 -3.42391,0.74617 -1.7267,0.566837 -3.35093,1.030613 -3.60938,1.030613 -0.87996,0 -0.47206,-1.245053 1.94332,-5.931605 2.68225,-5.204381 2.69573,-4.720776 -0.25324,-9.087144 -1.28862,-1.907981 -2.12641,-2.636501 -5.13341,-4.463866 -1.56404,-1.099667 -3.13421,-2.210475 -4.82008,-3.077274 -0.0696,6.2e-5 -0.14055,1.998062 -0.15771,4.439999 0.26307,3.735301 -1.00794,5.95779 -2.1288,9.13595 -0.74116,1.875272 -1.52854,3.450735 -3.05642,4.325984 -1.75408,0.903975 -3.17731,1.429538 -4.85397,2.505021 -0.71678,0.422583 -0.31929,0.994488 3.00251,4.32 5.67419,5.680522 5.78132,7.763535 0.2714,5.277111 -1.54194,-0.695823 -4.09952,-1.839346 -5.68352,-2.541163 -3.36843,-1.492431 -6.01747,-3.373402 -8.50557,-6.039437 -2.67133,-2.86236 -3.4407,-4.815332 -3.64724,-9.25814 -0.19077,-4.103784 0.71072,-8.531924 2.77387,-11.915174 2.60512,-3.738978 4.82815,-5.61547 7.78722,-7.528807 2.75102,-1.925419 10.86758,-4.085729 15.15124,-4.032666 1.38574,0.01716 2.51974,-0.159454 2.52,-0.392489 9.6e-4,-0.754468 -2.04985,-2.229464 -5.16991,-3.718527 -3.66729,-1.750238 -9.13611,-2.090354 -11.89077,-0.802123 -3.63142,1.750017 -4.58684,2.328476 -7.04473,3.996241 -2.92456,1.964998 -6.297196,5.62871 -9.330466,9.973091 -0.788453,1.002198 -2.330185,3.290362 -3.04364,4.195237 -2.058781,2.657226 -3.86324,5.645988 -4.61842,5.935779 -0.44836,0.172051 -1.108874,-0.196253 -1.83215,-1.703977 -0.843245,-2.297923 -1.670253,-3.704359 -2.855872,-5.191585 -1.120299,-1.396408 -2.062135,-2.996437 -3.273343,-4.580437 -3.70607,-4.426746 -7.507849,-8.99478 -12.967637,-11.004574 -7.02524,-2.799944 -12.278674,-2.944152 -18.597109,0.0013 -1.893644,0.877338 -6.086165,4.435759 -5.64576,4.791867 0.06066,0.04905 2.378289,0.210389 5.150289,0.358532 7.377667,0.394283 12.904161,1.223742 15.358075,2.305059 5.27879,2.326102 10.050153,6.807372 12.421353,11.666146 2.01452,4.236331 1.662988,9.619592 -0.518553,13.488719 -0.677247,1.153896 -1.694364,2.736836 -2.537484,3.666391 -1.058011,1.155365 -1.879868,1.737501 -2.439401,2.446555 -2.023609,2.186362 -1.888954,0.959895 -1.105771,-1.44 0.646229,-2.077513 0.08522,-3.09 0.03432,-4.08 -0.08099,-1.575322 -0.242323,-1.8 -1.292539,-1.8 -1.151825,0.413864 -1.724538,1.075038 -2.73709,1.780234 -0.875681,0.772293 -2.55048,1.162831 -4.11523,1.563269 -3.571819,0.719707 -8.354465,0.98266 -11.498085,-1.112334 -5.469451,-4.398705 -7.535668,-8.683877 -7.43446,-15.418488 0.03163,-2.105027 0.320496,-4.318701 0.641913,-4.919278 0.321418,-0.600577 0.458026,-1.218332 0.303567,-1.372788 -0.531307,-0.531308 -4.918882,1.772043 -6.358786,3.338178 -5.486084,5.96703 -5.117693,13.746515 0.959232,20.256554 0.760027,0.814195 6.569832,4.790405 8.158939,5.583946 1.693675,0.84576 6.635016,2.077344 10.199462,2.542123 1.385707,0.180686 2.630247,0.507768 2.765645,0.72685 0.361046,0.584179 -2.723141,2.568317 -4.952991,3.439042 -4.99113,1.818715 -10.468107,2.405494 -15.487895,0.764182 -3.625789,-1.292928 -7.994067,-4.113034 -9.896711,-6.389209 -0.984941,-1.178304 -2.069061,-2.142369 -2.409155,-2.142369 -0.9011,0 -0.803823,5.545387 0.188079,10.721618 1.097195,5.72571 0.95404,7.062595 7.694651,9.157025 6.73735,1.929586 10.95031,2.606465 20.652209,2.585125 10.785317,-0.0237 11.350445,0.087 10.900584,2.13517 -0.60647,2.76123 -5.447957,5.712382 -11.253878,6.859872 -6.7979,1.2095 -12.467572,1.65925 -17.564231,1.70408 -3.720328,0.0257 -6.960328,0.18861 -7.2,0.36195 -1.304551,0.94347 -2.305244,6.80474 -1.270912,7.44399 0.236972,0.14646 1.180788,-0.35187 2.097369,-1.1074 2.693745,-2.2204 6.111871,-3.93376 7.522912,-3.77089 1.151251,0.13288 1.311197,0.37502 1.44216,2.18329 0.118013,1.62949 -0.144638,2.45816 -1.321118,4.16811 -0.807634,1.17385 -2.1258,2.60237 -2.929261,3.17449 -1.466882,1.04451 -2.861522,1.09225 -6.289678,0.21529 -1.572518,-0.40226 -1.722624,0.0169 -1.932908,5.39662 -0.156773,4.01079 0.309372,5.07576 1.339112,3.05938 0.676515,-1.32471 2.101855,-2.41275 3.186556,-2.43246 0.999467,-0.0181 1.050139,0.8737 0.29912,5.26473 -0.655156,3.853 -0.710411,7.90633 -1.140917,11.65381 -0.351927,3.01658 -0.298358,3.34029 0.734768,4.44 0.612904,0.6524 1.293191,1.18619 1.51175,1.18619 0.218558,0 1.098906,-0.7266 1.956329,-1.61466 1.929697,-1.99866 4.424132,-2.60473 5.756761,-1.39872 1.452748,1.31472 2.46382,3.95187 3.373459,8.79889 0.61932,3.30003 0.297489,4.66346 -1.559443,6.60656 -0.604025,0.81166 -1.480659,1.84419 -1.931828,2.48793 -0.740771,0.82351 -0.35633,1.55348 0.486723,3.44961 1.583031,3.56042 2.732239,4.47284 3.649927,4.31648 0.990951,-0.0847 1.481467,-0.26883 2.188051,-0.40929 1.137706,-0.22617 1.534459,0.0935 3.46751,2.7939 1.200547,1.67712 2.943221,3.9133 3.872611,4.9693 2.752436,3.1274 2.992733,3.66826 3.351264,7.54306 -0.03782,3.07273 0.290954,3.67124 2.725263,5.16908 2.842466,2.01769 2.361957,1.22029 2.10852,-1.79474 -0.201423,-2.39623 -0.09542,-3.50514 0.399825,-4.18242 0.643325,-0.8798 0.731021,-0.88423 1.931611,-0.0976 1.64101,1.07523 8.54351,8.27303 10.426906,10.87298 1.230681,1.6989 1.443964,2.39046 1.310812,4.25024 -0.207715,2.90127 0.887563,3.23745 2.240976,0.68785 1.334429,-2.51384 3.203789,-2.68604 5.525942,-0.50903 2.798184,2.62264 5.930843,4.67515 8.425981,7.61876 1.63524,1.95726 1.71696,2.21584 1.42889,4.52146 -0.61758,2.49635 0.03043,2.69005 1.9712,4.10291 6.666286,4.85294 9.640126,5.45386 12.556696,2.53729 0.54468,-0.54469 0.87841,-0.51335 2.0845,0.19581 0.78978,0.46438 1.85846,1.23638 2.37484,1.71557 1.52845,1.41835 8.21852,4.64876 9.62743,4.64876 1.70573,0 3.25224,-0.61996 4.69089,-1.88048 1.38246,-1.21129 1.23235,-1.25271 4.04648,1.11651 1.22558,1.03182 2.6967,2.11182 3.26913,2.4 0.57245,0.28818 1.45674,1.27997 1.96511,2.20397 1.52291,2.76803 2.80674,3.8496 6.71943,5.66084 3.91517,1.81238 4.15508,2.13148 4.945,6.57728 0.81459,3.8166 2.08781,7.63112 2.32669,10.92188 0.33526,4.7653 -0.18555,9.11337 -1.37789,11.50347 -1.88917,3.41576 -3.17277,5.14595 -4.82032,6.84457 -3.98183,4.09821 -4.89241,4.58811 -15.12,8.13468 -7.16168,2.48341 -6.88829,2.47172 -8.9779,0.38407 -4.52621,-4.52195 -9.43504,-5.98218 -13.9872,-4.16076 -2.77297,1.10953 -4.21429,5.01397 -1.8509,5.01397 1.29265,0 2.256,0.82722 2.256,1.93722 0,0.43188 -0.74851,1.74597 -1.66334,2.9202 -2.14022,2.74706 -3.36307,7.30076 -2.93611,10.93354 0.16973,1.4442 0.5445,2.91004 0.8328,3.25742 0.32192,0.3879 0.33986,0.63162 0.0465,0.63162 -0.72138,0 -3.470246,-3.38284 -4.240616,-5.21862 -0.93768,-2.23449 -0.89501,-8.17971 0.0686,-9.55542 0.4113,-0.58721 0.62347,-1.26883 0.4715,-1.51473 -0.15198,-0.2459 -0.46268,-1.44468 -0.69047,-2.66397 -0.58747,-3.14456 0.2033,-5.8996 2.239976,-7.80407 1.99914,-1.86937 4.52295,-2.62254 8.87178,-2.64757 2.73167,-0.0157 3.72637,0.22792 6.33381,1.55138 1.70127,0.86352 3.915,2.40407 4.91941,3.42344 2.11985,2.15145 3.63245,2.02675 6.87329,0.98322 3.1641,-1.25124 6.44459,-2.72076 8.9928,-4.21194 3.34582,-1.96911 4.99681,-3.30876 6.60965,-5.36323 1.03391,-1.34662 2.08742,-2.93714 2.66739,-4.74343 0.5466,-1.82768 0.35624,-7.17381 -0.29398,-10.23506 -0.42147,-1.98429 -2.51908,-5.18949 -4.4402,-6.78475 -1.87539,-1.55728 -7.06877,-3.73172 -12.90204,-5.88438 -5.32625,-1.92957 -9.53544,-3.57141 -13.90032,-5.57087 -3.86662,-1.67877 -6.91426,-2.98994 -10.98041,-5.00769 -8.269275,-4.11765 -15.529057,-8.22384 -20.965088,-11.60026 -1.2348,-0.76563 -4.332461,-2.68805 -6.883685,-4.27205 -3.874887,-2.56735 -7.972157,-5.72168 -11.365305,-8.52 -5.613095,-5.01095 -10.382716,-9.54662 -15.02592,-14.51268 -1.426579,-1.52185 -4.303845,-5.3987 -5.899183,-7.56733 -2.916863,-4.30856 -6.23793,-8.73078 -8.740816,-13.69652 -2.655747,-5.39708 -5.246432,-10.67032 -6.828842,-14.80963 -1.081796,-3.36491 -3.05451,-8.2508 -3.998841,-11.45385 -1.994169,-6.51235 -2.761629,-11.91959 -3.775972,-18.24 -0.231043,-1.45081 -0.383012,-3.168 -0.520712,-5.28 -0.596403,-5.91339 0.220849,-11.46598 0.454732,-17.091212 0.125148,-3.06417 0.557587,-4.303122 1.107377,-5.873416 0.486254,-1.627631 0.73891,-2.377244 -0.0613,-4.008958 -0.686935,-2.134421 -0.687766,-3.283798 -1.265192,-5.442756 -1.008372,-4.398018 -1.172704,-15.406907 4.8e-4,-20.473341 1.432666,-6.187017 3.363698,-14.821062 4.991253,-18.509991 1.657573,-4.258193 3.644344,-7.895804 6.147417,-11.726801 1.811052,-3.141028 4.691373,-6.749944 7.610406,-9.006477 3.925075,-2.991606 11.743684,-7.005539 15.56506,-7.990815 3.725401,-0.995949 7.868844,-1.958676 11.869902,-2.805066 6.065573,-1.29319 18.959256,-2.2565101 23.972478,-2.1662821 4.29753,0.07735 9.736801,0.8301961 14.811751,1.7856441 5.79545,1.249647 10.86894,2.907965 15.11962,4.672596 4.51854,1.726861 12.58513,7.647968 15.12915,11.237692 2.20776,2.835189 4.30008,6.449039 5.28534,9.887075 0.56935,2.319457 1.35192,4.469446 1.89675,6.472117 1.02564,3.822514 2.98824,12.534351 3.35217,14.880001 0.57051,4.497504 2.44723,9.096648 3.37221,13.057632 0.69685,2.368985 1.25568,4.254226 2.51771,6.099435 1.21977,1.76593 1.92881,2.538382 3.60074,3.360221 0.79192,0.338971 2.78691,1.045601 4.94979,1.664694 5.89756,1.96743 18.60232,7.880176 22.05739,9.931156 4.10582,2.503967 10.12975,5.988618 15.2235,9.619362 4.22658,3.11015 10.93438,8.53197 14.92328,11.79046 7.40014,6.2694 15.3294,13.5964 21.57234,20.33585 3.32395,3.57069 7.60996,8.60687 8.76674,10.30118 3.05031,4.28721 6.2804,8.04089 9.38023,12.24 3.65128,4.7848 7.18388,10.00135 10.3468,14.70425 0.95357,1.41666 2.54146,4.08775 3.52863,5.93575 3.87079,7.24614 4.67286,8.66597 5.28748,9.36 0.3507,0.396 1.27485,2.016 2.05369,3.6 1.52805,3.08296 3.20467,6.28923 4.44614,9.36001 2.7049,5.95703 5.49866,12.10628 7.71041,18 2.41253,4.99068 4.25193,10.61994 5.58533,15.04371 2.55026,7.51129 4.56149,15.05842 5.41274,22.63629 0.21487,1.98 0.62935,5.22 0.92108,7.2 1.45762,9.89328 1.52361,14.4 0.21083,14.4 -1.35097,0 -3.82806,-1.33335 -5.22319,-2.81149 -1.3964,-1.47949 -2.62691,-1.9669 -2.62691,-1.04053 0,0.25738 0.648,1.87738 1.44,3.6 0.792,1.72261 2.09141,4.59002 2.88758,6.37202 2.79315,5.85947 5.03944,11.63285 7.44609,17.4642 1.50937,3.29974 4.27085,10.32471 5.45185,14.3358 0.6405,2.38819 0.72093,1.03887 1.85001,7.84056 0.73722,3.1235 0.48638,5.81583 -0.31115,8.82586 -0.46624,1.75969 -1.14748,3.15758 -1.81581,4.21358 -1.22273,1.932 -5.16956,4.79722 -8.55883,6.21335 -2.48788,1.03951 -7.5388,1.25376 -11.20016,0.4751 z m 7.52464,-10.53043 c 2.76488,-1.38873 3.92578,-2.9227 3.92578,-5.18739 0,-2.29192 -1.32334,-4.79753 -2.33101,-4.41351 -0.98417,0.37506 -7.96904,4.27859 -9.90899,5.53769 -0.792,0.51404 -1.71,1.06811 -2.04,1.23126 -1.0426,0.51546 -0.65274,1.98422 0.86589,3.26205 1.30715,1.0999 1.7719,1.20786 4.29183,0.99701 1.63195,-0.13655 3.82754,-0.73953 5.1965,-1.42711 z m -22.69022,-15.08157 c 4.2101,-2.35928 9.0764,-4.51305 13.176,-6.0295 6.2729,-2.30723 8.3768,-3.21213 9.24,-3.97418 1.12743,-0.99531 2.05523,-3.12295 0.12705,-5.45551 -0.6727,-0.86132 -1.25,-1.51426 -1.85483,-2.27732 -1.39355,-1.15656 -13.64691,2.91251 -16.63222,5.52319 -1.71624,1.49548 -3.27146,2.92926 -5.10769,4.36552 -4.72237,3.67742 -5.44536,5.16735 -3.51361,7.24084 1.01699,1.09161 3.70029,1.44836 4.5653,0.60696 z m 14.84722,-58.95645 c -0.41324,-0.98758 -0.74137,-3.12345 -1.51893,-6.24445 -0.46475,-2.08876 -1.23494,-4.36529 -1.89981,-6.42288 -0.57577,-2.24714 -0.57305,-2.42226 -2.76,-2.27392 -2.74295,0.18606 -5.86614,-0.45901 -8.69248,-1.79537 -3.91482,-1.851 -9.3852,-5.37486 -12.72,-8.19384 -6.18826,-5.24797 -13.42705,-9.66609 -19.75176,-13.8807 -6.49302,-4.3767 -19.74748,-9.15557 -21.90512,-7.89784 -0.75314,0.43902 -0.83746,0.64574 0.55336,1.31791 5.08867,2.77476 10.57221,5.25858 15.86913,8.5253 8.03827,5.11224 14.41328,8.91423 21.61836,14.14109 6.06371,4.4193 10.60361,6.61872 15.19903,10.19254 3.08804,2.55224 6.50899,5.44188 9.29702,7.72761 1.848,1.51431 3.99,3.40382 4.76,4.19892 1.55433,1.60499 2.49105,1.89573 1.95122,0.60563 z M 281.16791,238.284 c 0,-0.7526 -0.16414,-1.45812 -1.52052,-6.53569 -0.33499,-1.254 -0.83191,-2.31935 -1.10427,-2.36746 -1.34293,-0.0481 -2.87121,-0.10545 -5.77521,-0.12745 -4.48789,-0.034 -6.41722,-0.6264 -8.66116,-1.6158 -2.86849,-1.26478 -6.71527,-4.1926 -9.21426,-6.368 -5.12649,-4.37331 -11.41709,-8.35754 -15.41063,-10.64405 -4.16599,-2.4791 -9.79345,-4.53196 -12.00644,-4.90584 -2.37962,-0.40203 -6.30751,0.0669 -6.30751,0.75307 0,0.25611 0.27,0.53637 0.6,0.62281 2.31167,0.60548 4.90464,1.58106 7.8,2.93468 4.59113,2.41353 9.27317,4.26084 14.04284,7.28575 4.99707,3.19045 10.09859,7.14441 14.63073,11.07229 3.28866,2.3668 6.82569,4.96344 10.20643,6.27981 3.2753,1.70886 6.46398,2.73609 9.57884,3.92019 1.94408,0.88886 3.14116,0.56194 3.14116,-0.30431 z m -3.84,-12.48 c 0,-0.65479 -1.11608,-4.33682 -1.76282,-5.81569 -0.59382,-1.35787 -0.91341,-1.56 -2.46647,-1.56 -4.20672,-0.69978 -8.852,-2.72623 -11.73071,-4.80644 -3.28701,-2.69784 -6.8655,-4.7142 -9.75019,-7.71956 -1.85108,-1.95111 -5.22372,-4.97284 -7.66207,-6.12576 -1.19154,-0.46308 -2.05077,-0.79224 -3.22774,-1.21292 -2.15539,-0.51209 -1.65774,1.12212 1.38989,4.56412 3.77364,4.26196 5.57057,5.97643 10.16127,9.69496 6.27977,5.0867 8.94049,6.64769 17.84884,10.47154 6.61014,2.83736 7.2,3.04297 7.2,2.50975 z m -3.50439,-11.57569 c -1.48818,-4.8762 -6.56898,-14.38954 -8.44438,-17.67015 -1.49726,-2.94311 -2.85543,-5.49706 -3.85513,-7.40986 -0.93805,-2.35341 -2.7227,-4.52797 -3.97165,-6.38185 -2.40231,-3.57943 -8.0277,-7.04908 -11.8494,-8.31729 -2.89,-1.04852 -6.57685,-1.47515 -9.86876,-0.93746 -1.12813,0.21164 -1.70629,0.58581 -1.70629,1.10428 0.99027,3.07906 1.83893,6.07213 2.46092,9.43435 0.24771,2.03986 0.17539,3.65797 -1.02074,3.65797 -1.12844,0 -5.4053,-2.67702 -7.51008,-4.7008 -2.07887,-1.99886 -3.5037,-2.7176 -4.13531,-2.08598 -0.71982,0.71982 -0.46609,2.44117 0.34803,4.17475 0.67018,1.7241 0.81609,3.27727 0.87326,4.65928 0.0942,2.27747 0.003,2.52712 -0.97608,2.66614 -1.02614,0.0476 -1.99287,-0.60625 -3.15527,-1.49906 -2.59254,-1.99794 -4.57086,-3.38442 -6.80473,-5.43347 -2.41291,-2.22693 -10.53502,-7.86086 -11.33253,-7.86086 -0.23511,0 -0.42747,0.32606 -0.42747,0.72456 0,0.89285 2.41769,5.24803 3.92885,7.55782 0.75402,1.15251 1.62678,2.66762 2.18658,4.31762 2.47633,7.29896 1.75199,10.30849 -1.79067,7.44001 -0.73361,-0.594 -3.43959,-2.48401 -6.0133,-4.20001 -2.5737,-1.716 -5.67666,-3.94883 -6.89546,-4.96184 -3.19768,-2.65779 -7.9133,-5.56502 -8.35383,-5.15023 -0.20781,0.19566 -0.13309,0.98492 0.16604,1.75391 1.84062,4.73168 2.40453,9.87348 1.25522,11.44525 -0.89224,1.2202 -2.20452,0.65419 -3.83455,-1.65391 -1.92013,-2.17122 -3.42315,-4.15858 -5.11579,-6.23318 -1.40814,-1.93375 -3.26613,-3.51257 -4.99632,-5.04 -3.49728,-3.18239 -7.5561,-5.99672 -11.33677,-8.05951 -3.45636,-1.87738 -2.8426,-1.87356 -12.05569,-0.0749 -2.01063,0.39252 -3.96688,0.59426 -4.34722,0.44832 -0.39204,-0.15045 -0.95665,-1.55773 -1.30376,-3.24961 -0.90198,-4.39654 -1.64289,-6.53894 -2.35601,-6.81259 -0.34847,-0.13372 -1.63062,-0.0197 -2.84923,0.25341 -1.2322,0.27615 -3.6578,0.35444 -5.46474,0.17639 -3.10859,-0.0958 -3.22575,-0.10078 -3.5364,-3.02081 -0.73422,-6.90169 -0.97964,-7.23705 -4.41401,-6.0319 -1.9622,0.68856 -2.64047,0.72319 -4.47293,0.2284 -2.82771,-0.76351 -6.43616,-4.43965 -8.61596,-8.77755 -1.61811,-3.22012 -1.93564,-3.56867 -2.62333,-2.87961 -0.19761,0.198 -1.14234,0.58032 -2.0994,0.8496 l -1.74011,0.4896 5.9794,5.83585 c 3.28866,3.20972 5.61191,5.07649 6.99277,6.7104 4.41083,4.08327 10.11952,8.47674 14.45684,11.73047 3.66499,2.70774 6.48747,3.96733 9.89437,6.18408 1.95829,1.3863 5.21965,2.7131 7.58561,4.27219 1.16065,0.91297 5.11253,3.00533 10.9698,5.80807 5.89148,2.91582 11.16002,5.44183 16.8,7.95091 6.68615,2.78573 13.71893,5.97083 21.57884,7.50418 2.77552,0.49937 6.27804,1.17319 9.08742,1.34466 1.37873,0 1.44748,-0.0988 1.58744,-2.28 0.14529,-2.26424 0.15792,-2.2798 1.8263,-2.25099 0.924,0.0159 2.544,0.1916 3.6,0.39033 2.33685,0.43977 10.14086,0.46803 10.83466,0.0392 0.28227,-0.17445 0.43973,-1.53076 0.36134,-3.11242 -0.0764,-1.54178 0.0181,-2.96032 0.21016,-3.15231 0.19199,-0.192 1.262,-0.0478 2.3778,0.32046 1.1158,0.36825 3.38017,0.6393 5.03193,0.60235 3.95712,-0.0885 4.70411,-0.80921 4.70411,-4.53839 0,-1.52316 0.2183,-2.98787 0.48511,-3.25493 0.32709,-0.32739 1.30984,-0.2438 3.01691,0.25661 3.41907,0.83078 7.25053,-0.12092 10.04545,-1.97995 2.19712,-1.47962 3.49253,-2.0403 3.49253,-1.51163 0,0.69321 -0.97936,2.25063 -1.44726,3.19163 -0.93941,1.88924 -2.04,4.29146 -1.73056,6.22657 0.54825,3.26843 2.69957,5.32632 4.13782,7.90269 2.30584,3.20291 7.95516,8.77196 11.08721,10.83074 1.58207,0.98147 3.11887,2.25421 4.92877,2.87704 0.2288,0.001 0.30062,-0.37504 0.15963,-0.83704 z M 207.96791,169.9483 c 2.3484,-0.60236 3.11951,-1.02218 3.63022,-1.97647 0.39779,-0.74327 1.0402,-0.90353 3.62204,-0.90353 2.07769,0 4.35142,-0.40717 6.72712,-1.20467 4.81942,-1.61782 6.02863,-2.45081 5.8456,-4.02689 -0.14166,-1.21989 -0.21631,-1.24494 -3.26498,-1.09543 -1.716,0.0842 -4.32879,-0.0816 -5.94344,-0.53314 -3.13371,-0.93284 -3.7686,-0.89294 -5.94587,0.0868 -2.46944,1.11119 -8.51574,1.75806 -12.21058,1.03586 -1.66106,-0.32468 -4.36168,-1.25591 -6.00138,-2.06941 -2.75614,-1.36741 -3.11861,-1.43447 -4.8,-0.88811 -5.76186,1.87231 -13.0955,0.3797 -17.48514,-3.55874 -1.5023,-1.34789 -1.97195,-1.52052 -3.36,-1.23502 -2.30775,0.47465 -6.25795,-0.16628 -8.77625,-1.42398 -1.19084,-0.59473 -3.28307,-2.176 -4.64939,-3.51393 -2.45222,-2.40126 -2.51914,-2.43087 -5.19374,-2.29831 -2.38465,0.27481 -5.33465,-0.47353 -6.90588,-1.18734 -2.22539,-0.99221 -5.22581,-3.45971 -6.6714,-5.20766 -0.655,-0.792 -1.3302,-2.01138 -1.50045,-2.70973 -0.29429,-1.2072 -0.50474,-1.28678 -4.273,-1.61577 -4.01013,-0.35012 -5.82701,-0.9839 -8.08992,-2.82203 -3.10662,-2.44357 -6.25368,-5.20704 -9.10926,-7.49247 -2.39183,-1.84818 -4.09004,-4.16904 -6.68429,-5.74767 -2.30584,-1.94947 -6.72009,-2.52268 -11.138996,-1.49616 -2.80565,0.65175 -3.41645,1.57231 -3.31377,4.99429 0.11468,3.82176 0.62418,4.29769 2.43249,2.27226 1.38099,-1.54681 1.52021,-1.59084 4.16676,-1.31769 2.033116,0.20984 3.242066,0.66352 4.695776,1.76218 3.3837,2.30972 6.83708,4.9869 9.54715,7.51678 2.06217,1.93402 3.89817,3.49524 4.08,3.46937 2.11393,-0.30079 3.66922,0.24081 5.36034,1.86664 5.36643,5.15923 7.35187,6.53533 10.14435,7.03098 2.16008,0.43988 3.49133,2.23216 5.19432,3.27918 2.33247,1.67263 4.49395,2.90257 6.72653,4.66812 0.62256,0.53995 1.53359,0.90604 2.72906,0.99655 3.20897,-0.12634 4.95843,0.45086 7.64231,1.47931 1.77127,0.74116 2.565,1.46756 4.53577,3.41633 2.2821,2.25664 5.61041,2.98561 7.05157,1.54444 1.08673,-1.08673 2.60694,-0.60751 10.88227,3.43048 7.63938,3.72766 9.67542,4.20337 12.98998,3.03501 1.49403,-0.52663 2.38164,-0.27345 6.03408,1.72115 3.79111,1.20141 7.64777,1.69048 11.28,0.71845 z m 24.5007,-16.80786 c 1.1586,-0.4405 1.25207,-0.65374 0.9627,-2.19623 -0.9797,-2.66869 -1.87667,-6.02784 -3.77072,-7.9207 -1.32425,-1.30641 -1.98054,-1.57873 -3.96,-1.64321 -2.15328,-0.0701 -5.28579,-1.21838 -7.54775,-2.7667 -0.73818,-0.50528 -1.09909,-0.30754 -2.64,1.44642 -2.98884,3.19678 -5.62426,4.19166 -9.97865,2.87816 -2.28043,-0.74041 -3.13834,-0.81626 -4.51112,-0.39885 -2.47148,0.75147 -2.91247,0.75933 -5.29516,0.0944 -2.50454,-0.69889 -5.35055,-2.24874 -5.90385,-3.21505 -0.54296,-0.94827 -0.92622,-0.86068 -3.65413,0.83508 -3.11701,1.93764 -5.29468,1.9676 -8.7204,0.12 -2.64927,-1.42886 -6.34442,-4.59614 -7.16162,-6.48051 -0.37404,-0.86249 -0.62578,-1.02404 -1.9409,-0.81375 -1.70888,0.27326 -3.75441,-0.18105 -5.4,-1.15697 -3.58936,-2.12075 -5.6191,-3.80853 -5.6191,-4.67242 0,-0.62261 -0.76002,-0.90444 -2.36281,-0.46616 -2.24105,0.58283 -6.03644,1.19907 -8.19718,0.70857 -0.924,-0.20976 -2.44649,-0.7692 -3.3833,-1.24322 -1.72786,-0.87427 -6.42187,-5.31148 -8.62266,-8.15094 -1.20923,-1.89638 -1.37852,-1.4388 -3.09035,-0.27713 -1.6251,1.10283 -2.18572,1.23387 -4.07405,0.95229 -3.1798,-0.47414 -6.14302,-1.87699 -8.63902,-4.08985 -2.3208,-2.19997 -5.02658,-4.35398 -7.47062,-5.96518 -4.52286,-2.96093 -10.06361,-2.1858 -13.657527,0.68526 -2.47504,2.00823 -4.971179,5.83585 -4.643179,6.16384 0.0798,0.0798 0.83072,-0.094 1.66877,-0.38614 3.251843,-1.67002 8.927306,-1.02917 11.187236,0.15235 2.6747,1.39837 5.72623,2.45201 6.95958,1.58813 0.91062,-0.63782 1.14748,-0.51509 3.26008,1.68929 4.51529,3.86351 10.50461,6.6281 14.03483,8.13293 2.5529,1.08316 4.99472,1.31377 7.6627,0.72367 1.34599,-0.29771 1.74018,-0.10473 3.58084,1.75298 2.73368,2.759 5.5548,4.66963 10.50667,7.11574 5.06275,2.50089 8.33232,2.9901 10.03344,1.50127 1.42847,-1.25021 1.76476,-1.25616 2.79793,-0.0495 1.24174,1.38292 4.09502,3.14306 5.6489,4.61731 6.40544,6.10113 6.45991,6.1316 10.96926,6.13614 2.25913,0.002 4.53348,-0.27139 5.38581,-0.64804 1.56795,-0.69289 3.55025,-0.43877 4.61109,0.59111 2.62169,2.54519 5.95289,3.45618 12.42817,3.39878 2.61495,-0.0232 3.99132,-0.46306 5.70824,-1.19675 1.69951,-0.72625 2.30658,-1.82569 2.80069,-2.84818 0.65881,-0.95559 2.04552,-0.41493 3.34063,0.11685 2.18243,0.7639 4.47324,2.2268 6.19818,3.0168 2.08024,0.92847 5.48241,2.04146 6.39765,2.34299 1.21832,0.40138 2.75772,0.33573 4.1007,-0.17487 z M 117.01782,60.445059 c 3.30247,-1.856083 5.74089,-6.329847 5.74742,-10.544737 0.003,-1.987248 -1.06609,-4.861926 -3.83105,-5.950027 -2.55043,-1.003677 -6.90638,-0.05972 -10.02861,3.63519 -1.68064,1.988911 -3.08825,4.132651 -3.41766,8.463479 -0.12604,1.657165 1.67504,4.672604 2.96418,5.327679 1.69826,0.862977 6.25438,0.367464 8.56572,-0.931584 z M 111.772,56.75437 c -1.51977,-0.548626 -2.90262,-2.218591 -2.91341,-4.750068 -0.01,-2.226476 0.40766,-3.038799 1.89517,-4.526309 3.68266,-3.391512 9.44486,-1.442861 9.21132,4.517357 -0.0824,2.10191 -0.67879,3.521788 -2.76103,4.598558 -1.2817,0.662789 -4.03504,0.664769 -5.43205,0.160462 z m 4.56708,-7.904667 c 0,-1.002883 -1.72807,-1.599182 -2.25226,-0.771345 -0.68382,1.079956 -0.39762,2.088719 0.87756,2.088719 0.75759,0 1.3747,-0.853305 1.3747,-1.317374 z M 62.873421,60.967068 c 0.982027,-0.272736 2.576549,-1.241932 3.543379,-2.153774 1.574174,-1.484635 1.727952,-1.842317 1.471507,-3.422602 -0.163293,-1.679153 -0.941576,-3.000937 -1.593223,-4.250186 -1.256376,-2.426799 -3.678406,-4.302265 -6.435661,-4.99655 -1.866629,-0.470022 -3.231786,-0.485388 -5.434511,0.207454 -4.809753,1.512853 -7.420094,5.698396 -5.86691,9.407289 0.820167,1.958515 3.612331,4.618166 5.218723,4.971048 3.420749,0.751459 6.917035,0.842673 9.096696,0.237321 z m -7.545499,-3.172334 c -2.11428,-1.108719 -3.097286,-2.57257 -3.109325,-4.630267 -0.01723,-2.943337 1.794571,-5.641172 4.177488,-6.220436 0.587487,-0.142814 2.420548,-0.03463 3.5041,0.240403 2.068531,0.525048 3.157059,2.350678 3.779038,4.911589 0.511918,1.984445 -1.019556,4.799301 -3.342828,5.728888 -2.057864,0.709709 -3.684126,0.651132 -5.008473,-0.03018 z m 4.286385,-6.832042 c 0.361287,-0.584578 -0.694224,-1.938916 -1.916517,-1.15092 -1.140002,0.734945 -0.669581,1.984149 0.663571,1.984149 0.512419,0 1.108274,-0.599142 1.252946,-0.833229 z M 165.96791,333.53023 c 0,-0.7069 0.29894,-1.12222 0.59646,-2.22246 0.32776,-1.21208 0.90333,-1.85661 0.71293,-3.66989 -0.23293,-2.21821 -0.83874,-3.33637 -1.78939,-4.88688 -1.70425,-2.77962 -1.78609,-3.55265 -0.26443,-5.29593 1.09695,-1.49428 1.20234,-1.33179 2.71518,-0.48594 2.107,1.17805 2.54157,0.57217 2.60084,-3.62609 0.1184,-8.38762 0.83695,-15.76712 1.6307,-16.74736 0.78776,-0.97284 0.78978,-0.97261 1.33067,0.14915 0.29793,0.61791 0.80882,2.48481 1.1353,4.14864 0.60334,3.07479 1.16249,3.88073 4.72797,6.81484 1.55078,1.27616 2.12246,2.23492 1.72046,2.88536 -0.24948,0.40367 -4.93028,-2.20588 -6.49223,-3.61943 -1.28971,-1.16717 -1.54074,-0.27958 -1.61447,5.70871 -0.0495,4.02275 -0.27171,5.7496 -0.89791,6.97911 -0.92349,1.59733 -1.03999,1.76718 -0.83208,3.47485 0.41895,3.44101 -1.31066,5.78446 -3.51068,9.05131 -1.58444,2.35275 -1.76932,2.49298 -1.76932,1.34201 z m -10.49685,-18.26192 c -1.4045,-1.81079 -1.55077,-2.27752 -1.30177,-4.15392 0.27225,-2.05157 2.19285,-5.8907 3.19222,-7.24608 0.52229,-0.70835 -0.44102,-3.57928 -1.29931,-5.5813 -0.78968,-1.84202 -2.55371,-3.0587 -4.43468,-3.0587 -1.85199,0 -6.46125,1.7709 -9.1796,3.52686 -5.44892,3.51979 -6.71821,4.41769 -6.71908,4.75314 -4.8e-4,0.198 -0.67177,0.36 -1.49169,0.36 -2.07285,0.16427 -1.20608,-0.25656 -0.0261,-1.32 1.89469,-1.65846 3.99371,-2.74817 6.03035,-4.2 3.84322,-2.62954 6.98377,-5.27891 10.7372,-7.47544 2.44788,-1.43251 4.99807,-2.92856 5.6671,-3.32456 1.92535,-1.13963 2.51938,0.11461 2.41428,5.09751 -0.27876,2.80558 0.62072,5.67952 0.82404,8.01564 0.16482,1.94988 0.33608,2.86645 0.56356,4.23289 0.14514,0.87233 -0.11942,1.11328 -0.58789,1.63349 -2.40734,2.67315 -3.90481,7.77189 -2.53178,8.62047 0.56556,0.34953 0.65166,2.16 0.10272,2.16 -0.2075,0 -1.08931,-0.918 -1.95957,-2.04 z m -40.87505,-3.61897 c -2.21798,-2.21797 -2.79933,-5.00976 -1.97492,-9.48398 0.53995,-2.9304 -0.23847,-5.12034 -0.49365,-6.76181 -0.31669,-2.95301 0.64395,-5.17289 2.08909,-7.41332 1.38245,-1.98928 5.33439,-3.32192 8.47508,-3.32192 2.95753,0 6.44141,0.97003 7.7557,2.15945 0.67012,0.60646 1.09775,0.5949 3.38383,-0.0914 2.39892,-0.7202 8.04781,-3.04167 9.43739,-3.87841 3.12488,-1.88163 6.76725,-3.99944 10.15848,-7.45165 2.08306,-2.17974 4.23738,-4.18639 5.72885,-6.65796 3.00795,-4.64489 6.13771,-9.4683 7.26074,-13.36 0.34282,-1.188 0.81411,-2.78624 1.04731,-3.55163 1.20645,-3.95972 -0.0211,-9.96979 -2.22457,-10.89123 -3.78213,-1.82997 -7.47552,-4.87112 -10.76708,-6.67714 -1.55949,-0.81524 -6.9207,-4.05531 -8.23481,-5.40678 -1.56158,-1.60601 -2.34953,-3.02288 -2.34953,-4.22488 0,-0.88237 0.18988,-0.96376 1.56,-0.6687 0.858,0.18477 2.1,0.60494 2.76,0.93373 1.74812,0.87082 6.11171,1.82253 6.69721,1.46068 0.27653,-0.17091 0.50278,-1.05399 0.50278,-1.96241 0,-0.92182 0.24319,-1.65167 0.55032,-1.65167 0.57557,0 4.68688,2.62357 6.5067,4.15214 0.58135,0.48832 2.19171,1.53586 3.57857,2.32786 2.78051,1.58787 6.78687,5.24842 7.2995,6.66943 0.89479,2.48038 1.26222,7.74981 0.72928,10.45872 -0.77474,3.39627 -1.9877,6.41271 -3.26801,9.48617 -1.25372,2.927 -2.92841,5.34944 -4.22486,7.73526 -3.54557,6.57396 -11.73085,15.77417 -17.91404,20.13529 -3.50918,2.86723 -7.28149,4.95 -11.25745,6.54048 -3.33392,1.31992 -4.97927,2.63072 -5.0393,4.01465 -0.0411,0.94837 -1.16229,2.4 -1.85362,2.4 -0.31463,0 -0.54708,-0.7845 -0.54708,-1.84626 0,-4.19029 -2.70843,-6.66028 -6.66322,-6.07663 -4.16973,0.61538 -7.45511,3.63203 -7.16741,6.58113 0.11635,1.1927 0.42367,1.60755 1.35063,1.82319 0.66,0.15354 1.47692,0.85389 1.81538,1.55633 0.56517,1.17292 0.47135,1.47768 -1.1495,3.73378 -1.60263,2.23074 -1.76688,2.75135 -1.78649,5.66253 -0.0118,1.76326 0.243,3.69193 0.5664,4.28593 0.93576,1.71879 -0.25698,1.34175 -2.3377,-0.73897 z m -38.51802,-3.94256 c -0.99312,-1.15988 -2.750069,-6.41344 -2.750069,-8.22315 0,-1.43456 1.422058,-4.33341 2.926805,-5.96626 0.678706,-0.73648 0.913195,-1.70574 0.913195,-3.77465 0,-3.80692 1.772626,-7.05769 5.002546,-9.17401 2.738126,-1.79409 11.655897,-1.64083 13.102187,0.22518 1.03034,1.32934 0.67699,1.50733 -2.38473,1.20123 -3.91826,-0.39172 -7.854377,0.99046 -9.904942,3.47815 -1.915166,2.32343 -2.10877,3.70208 -0.705072,5.02079 1.810195,1.70059 1.497103,3.72403 -0.88115,5.45425 -4.429141,3.22228 -4.585911,3.96018 -4.395315,8.23699 0.131611,2.65724 0.232794,4.09668 0.105919,4.22357 -0.126887,0.12688 -0.590102,-0.18905 -1.029374,-0.70209 z m 57.17534,-88.04345 c -3.81095,-3.00609 -6.69744,-4.95267 -7.11376,-7.21419 -0.41276,-1.82557 -1.02873,-3.28483 -1.67913,-4.34083 -1.26813,-2.05893 -1.58086,-4.95967 -0.63652,-5.904 0.67725,-0.67726 2.42786,-0.60655 3.47943,-0.13574 0.89082,0.48919 1.89137,1.24035 3.87048,2.21825 3.94043,1.947 7.51644,4.14651 8.0929,6.59732 0.64539,2.72735 1.4383,7.45533 -0.27481,9.84817 -1.10876,1.10875 -3.55561,0.65295 -5.73859,-1.06898 z m 30.06486,-1.23885 c -5.51677,-0.39168 -6.19807,-0.54643 -9.92325,-2.25406 -2.84186,-1.30271 -2.99572,-1.51604 -4.25666,-5.90211 -0.34153,-1.188 -0.90353,-2.73737 -1.24888,-3.44304 -0.58472,-1.1948 -0.52427,-1.37026 0.87891,-2.55096 1.30969,-1.10203 1.88139,-1.25261 4.37003,-1.15105 4.38175,0.17883 8.70256,1.13171 10.74468,2.36954 3.25288,1.97174 4.61578,3.6182 7.24969,8.75802 0.97179,1.89634 0.43307,3.49277 -1.39353,4.12952 -1.64317,0.50413 -4.40348,0.20612 -6.42099,0.0441 z m -51.25209,-5.45245 c -3.09377,-1.05424 -5.99718,-3.17322 -7.9796,-5.82372 -0.39492,-0.528 -1.63514,-1.91056 -2.75606,-3.07235 -2.416786,-2.50492 -2.984816,-4.37165 -1.854966,-6.09602 0.679306,-1.03676 1.079266,-1.18344 2.802416,-1.02782 1.10551,0.0998 2.91942,0.65283 4.0309,1.22886 2.65898,0.62852 4.4354,2.35012 6.69833,3.44674 1.94589,0.74212 4.21907,4.00558 5.24631,6.1324 0.96544,1.99884 0.93531,3.65945 -0.0956,5.26819 -0.86765,1.35398 -1.98341,1.34367 -6.09176,-0.0563 z m 9.98182,-17.42589 c -1.94813,-0.54241 -5.3494,-2.85388 -7.8,-5.30078 -1.386,-1.3839 -1.86119,-1.66059 -2.52,-2.81091 -0.77255,-1.27879 -1.56841,-2.4153 -1.92,-3.8939 0,-1.47523 2.23792,-3.4771 3.90943,-3.49708 2.4759,-0.0296 7.48657,1.92305 11.33406,4.41681 2.14519,1.39041 4.54532,2.88699 5.33363,3.32573 1.77677,0.98887 4.03506,4.2993 3.63827,5.33333 -0.25811,0.67263 -1.86977,1.51458 -4.05539,2.11859 -1.30729,0.36128 -6.94188,0.58056 -7.92,0.30821 z M 84.166523,190.9483 c -0.756351,-0.858 -2.542258,-3.93395 -3.968693,-6.83544 -3.011794,-6.12627 -3.185947,-7.85385 -0.869909,-8.62945 1.261492,-0.61451 2.575014,-1.23972 3.493549,-1.01958 1.197293,0.39256 1.318211,0.49053 2.803297,0.60201 1.485092,0.11148 3.591837,0.64206 4.681657,1.17907 2.08429,1.02702 4.016826,2.78518 5.499149,5.15428 0.60386,0.82918 1.034785,1.96188 1.042351,2.94915 0,1.58371 -0.32,2.24001 -1.82696,3.74697 -2.3729,2.3729 -6.05585,4.41303 -7.966613,4.41303 -1.104494,0 -1.883716,-0.42093 -2.887828,-1.56 z m 15.132711,-14.61566 c -1.66372,-0.67208 -2.90117,-2.34164 -3.43992,-4.64111 -0.218476,-1.40432 -1.474113,-2.21392 -1.37139,-3.9727 0.20676,-1.152 -0.23191,-1.60302 -2.32,-2.38535 -2.62575,-0.98377 -2.84186,-1.25866 -4.296387,-5.46518 -1.333075,-3.85526 -1.407898,-6.29583 -0.225821,-7.3656 0.943088,-0.85348 2.739318,-1.06336 3.167758,-0.37013 0.14421,0.23334 1.23081,0.87956 2.41467,1.43603 1.18385,0.55648 2.51658,1.60756 2.96162,2.33574 0.44505,0.72818 1.59293,2.51196 2.55084,3.96396 0.95792,1.452 2.027716,3.21023 2.377326,3.90717 0.34961,0.69694 1.20588,1.55316 1.90282,1.9027 1.48989,0.77985 2.82533,1.78669 4.37555,2.35013 1.30614,0.41176 1.43748,0.7903 2.29162,2.29205 1.58555,2.78774 -0.30819,5.15206 -4.49788,5.61556 -1.95867,0.18624 -3.96328,0.6638 -5.890806,0.39673 z m -45.480278,-6.84146 c -1.595573,-2.56211 -2.184552,-3.28675 -2.42592,-6.43552 -0.242559,-3.16427 0.566313,-7.32277 1.670332,-8.58736 0.40334,-0.462 1.36128,-0.84 2.128757,-0.84 1.825555,0 5.633952,1.27678 6.880104,2.30659 2.533949,2.09401 3.302971,12.59753 1.052246,14.37188 -0.328104,0.25866 -2.380041,0.60117 -4.559856,0.76114 -1.705383,0.0259 -3.830029,-0.0542 -4.745663,-1.57673 z m 19.148965,-3.36386 c -1.334467,-0.82541 -1.56,-1.23941 -1.56,-2.86363 0,-1.0443 -0.344491,-2.17455 -0.893636,-2.96916 -1.263313,-2.31858 -1.367159,-5.17159 -0.886638,-7.46385 0.298315,-0.93384 0.591069,-2.20641 1.187642,-2.76663 0.975212,-0.30952 7.520808,1.10061 8.785608,1.8927 1.311893,0.82158 3.635083,4.70739 4.211434,7.04411 1.336444,5.4184 0.403036,7.02862 -4.24441,7.32205 -1.716,0.10834 -3.552,0.32576 -4.08,0.48315 -0.564158,0.16816 -1.603243,-0.1117 -2.52,-0.67874 z M 53.887922,148.95587 c -0.528,-0.0938 -1.482322,-0.56722 -2.120722,-1.05202 -1.158662,-0.87989 -1.159679,-0.88899 -0.575851,-5.1385 0.575722,-4.19046 1.206691,-6.80999 2.035498,-8.45053 0.23159,-0.45842 0.421075,-1.45094 0.421075,-2.20561 0,-1.79837 1.348339,-2.96091 3.434126,-2.96091 1.830163,0 3.113674,1.09567 4.217189,3.6 0.921067,2.09029 1.30429,12.96136 0.491434,13.94079 -1.187309,1.43062 -5.55601,2.68371 -7.902749,2.26678 z m 13.614441,-5.04757 c -0.370565,-0.69081 -0.592867,-3.59365 -0.616886,-8.05544 -0.03624,-6.73475 0.0038,-7.02896 1.162445,-8.52642 1.049596,-1.35658 1.425873,-1.52577 3.002164,-1.34993 2.4528,0.2736 4.724592,2.32572 6.390019,5.77213 1.499813,3.10369 2.133331,8.07558 1.241357,9.74225 -0.599064,1.11936 -6.767899,3.50315 -9.056654,3.49973 -1.107158,-0.001 -1.706779,-0.30743 -2.122445,-1.08232 z m -29.334441,-6.94585 c -0.689769,-0.76346 -0.839999,-1.84857 -0.839999,-6.06736 0,-7.67418 1.145313,-9.68777 5.039999,-8.86089 2.886053,0.61274 4.003219,2.55464 4.09272,7.1141 0.129586,6.60135 -0.680961,7.94392 -5.112009,8.46737 -1.928631,0.22783 -2.488594,0.11284 -3.180711,-0.65322 z m 21.24,-15.65624 c -2.135203,-0.55836 -2.158709,-0.58685 -2.047695,-2.48138 0.104275,-2.40574 1.393966,-4.62549 2.227071,-6.55588 1.564531,-3.63062 2.486097,-4.08611 5.576952,-2.75646 2.295403,0.98745 2.403672,1.11808 2.403672,2.90015 -0.136626,2.4884 -1.207081,4.49135 -2.091946,6.77292 -0.5736,1.31772 -1.973362,2.2897 -3.009244,2.39291 -0.88066,0.0878 -1.87081,0.0384 -3.05881,-0.27226 z m -16.983028,-2.44588 c -2.378405,-3.11825 -1.380087,-5.61466 4.011163,-10.03036 1.952407,-1.26928 4.267455,-1.26538 6.38158,-2.0434 2.268197,-0.85011 2.13672,-0.86472 2.763994,0.30735 0.428059,0.79983 0.297854,1.36532 -0.690744,3 -1.862371,3.07949 -9.059678,10.41438 -10.219042,10.41438 -0.563668,0 -1.531267,-0.70966 -2.246951,-1.64797 z m 29.622781,-0.54806 c -0.687475,-1.79153 3.122938,-10.53062 4.955645,-11.36566 0.948787,-0.43229 1.329398,-0.33325 2.329348,0.60615 2.201151,2.06788 1.416432,5.01382 -2.480836,9.3134 -2.097586,2.31412 -4.225301,2.95459 -4.804157,1.44611 z M 71.783238,93.172394 c -2.395749,-0.981944 -3.879425,-2.31894 -5.792884,-3.13222 -0.980338,-0.40962 -1.782432,-0.90771 -1.782432,-1.10689 0,-0.19917 0.54,-1.15681 1.2,-2.12809 1.476523,-2.854358 3.320899,-5.224627 4.793702,-7.93689 0.71225,-1.343292 1.583381,-2.52 2.657851,-2.52 0.714442,0 1.814112,0.39743 2.443714,0.883176 1.110816,0.857011 4.275316,2.146234 4.562692,1.858864 0.07826,-0.0783 0.476026,-2.056053 0.88392,-4.395098 0.736152,-4.221398 1.387349,-5.730533 2.336256,-5.414232 0.271733,0.09058 0.55093,1.502362 0.620443,3.137299 0.06951,1.634938 0.541071,3.820776 1.021467,5.876338 0.435579,1.863795 1.056113,3.564704 1.346019,7.736004 0.07096,2.257094 0.210846,4.67924 -0.152943,6.807739 -0.202925,0.948923 -1.367376,-4.5e-4 -2.587666,-0.27969 -1.930718,-0.44181 -2.494531,-0.37419 -4.34363,0.52095 -2.857369,1.062414 -5.211004,0.789045 -7.206509,0.09274 z" id="path3723"/> </svg>